<svg width="14" height="21" viewBox="0 0 14 21" fill="none" xmlns="http://www.w3.org/2000/svg">
<g id="Vector">
<mask id="path-1-inside-1_387_10147" fill="white">
<path d="M7 1.92857C6.25739 1.92857 5.5452 2.22959 5.0201 2.76541C4.495 3.30123 4.2 4.02795 4.2 4.78571V10.5C4.2 11.2578 4.495 11.9845 5.0201 12.5203C5.5452 13.0561 6.25739 13.3571 7 13.3571C7.74261 13.3571 8.4548 13.0561 8.9799 12.5203C9.505 11.9845 9.8 11.2578 9.8 10.5V4.78571C9.8 4.02795 9.505 3.30123 8.9799 2.76541C8.4548 2.22959 7.74261 1.92857 7 1.92857ZM7 0.5C8.11391 0.5 9.1822 0.951529 9.96985 1.75526C10.7575 2.55898 11.2 3.64907 11.2 4.78571V10.5C11.2 11.6366 10.7575 12.7267 9.96985 13.5305C9.1822 14.3342 8.11391 14.7857 7 14.7857C5.88609 14.7857 4.8178 14.3342 4.03015 13.5305C3.2425 12.7267 2.8 11.6366 2.8 10.5V4.78571C2.8 3.64907 3.2425 2.55898 4.03015 1.75526C4.8178 0.951529 5.88609 0.5 7 0.5ZM6.3 19.0714V17.6429C4.62914 17.6429 3.02671 16.9656 1.84523 15.76C0.663748 14.5544 0 12.9192 0 11.2143V10.5C0 10.3106 0.0737499 10.1289 0.205025 9.99492C0.336301 9.86097 0.514348 9.78571 0.7 9.78571C0.885652 9.78571 1.0637 9.86097 1.19497 9.99492C1.32625 10.1289 1.4 10.3106 1.4 10.5V11.2143C1.4 12.5404 1.91625 13.8121 2.83518 14.7498C3.75411 15.6875 5.00044 16.2143 6.3 16.2143H7.7C8.99956 16.2143 10.2459 15.6875 11.1648 14.7498C12.0838 13.8121 12.6 12.5404 12.6 11.2143V10.5C12.6 10.3106 12.6737 10.1289 12.805 9.99492C12.9363 9.86097 13.1143 9.78571 13.3 9.78571C13.4857 9.78571 13.6637 9.86097 13.795 9.99492C13.9263 10.1289 14 10.3106 14 10.5V11.2143C14 12.9192 13.3363 14.5544 12.1548 15.76C10.9733 16.9656 9.37086 17.6429 7.7 17.6429V19.0714H9.1C9.28565 19.0714 9.4637 19.1467 9.59498 19.2806C9.72625 19.4146 9.8 19.5963 9.8 19.7857C9.8 19.9752 9.72625 20.1568 9.59498 20.2908C9.4637 20.4247 9.28565 20.5 9.1 20.5H4.9C4.71435 20.5 4.5363 20.4247 4.40503 20.2908C4.27375 20.1568 4.2 19.9752 4.2 19.7857C4.2 19.5963 4.27375 19.4146 4.40503 19.2806C4.5363 19.1467 4.71435 19.0714 4.9 19.0714H6.3Z"/>
</mask>
<path d="M7 1.92857C6.25739 1.92857 5.5452 2.22959 5.0201 2.76541C4.495 3.30123 4.2 4.02795 4.2 4.78571V10.5C4.2 11.2578 4.495 11.9845 5.0201 12.5203C5.5452 13.0561 6.25739 13.3571 7 13.3571C7.74261 13.3571 8.4548 13.0561 8.9799 12.5203C9.505 11.9845 9.8 11.2578 9.8 10.5V4.78571C9.8 4.02795 9.505 3.30123 8.9799 2.76541C8.4548 2.22959 7.74261 1.92857 7 1.92857ZM7 0.5C8.11391 0.5 9.1822 0.951529 9.96985 1.75526C10.7575 2.55898 11.2 3.64907 11.2 4.78571V10.5C11.2 11.6366 10.7575 12.7267 9.96985 13.5305C9.1822 14.3342 8.11391 14.7857 7 14.7857C5.88609 14.7857 4.8178 14.3342 4.03015 13.5305C3.2425 12.7267 2.8 11.6366 2.8 10.5V4.78571C2.8 3.64907 3.2425 2.55898 4.03015 1.75526C4.8178 0.951529 5.88609 0.5 7 0.5ZM6.3 19.0714V17.6429C4.62914 17.6429 3.02671 16.9656 1.84523 15.76C0.663748 14.5544 0 12.9192 0 11.2143V10.5C0 10.3106 0.0737499 10.1289 0.205025 9.99492C0.336301 9.86097 0.514348 9.78571 0.7 9.78571C0.885652 9.78571 1.0637 9.86097 1.19497 9.99492C1.32625 10.1289 1.4 10.3106 1.4 10.5V11.2143C1.4 12.5404 1.91625 13.8121 2.83518 14.7498C3.75411 15.6875 5.00044 16.2143 6.3 16.2143H7.7C8.99956 16.2143 10.2459 15.6875 11.1648 14.7498C12.0838 13.8121 12.6 12.5404 12.6 11.2143V10.5C12.6 10.3106 12.6737 10.1289 12.805 9.99492C12.9363 9.86097 13.1143 9.78571 13.3 9.78571C13.4857 9.78571 13.6637 9.86097 13.795 9.99492C13.9263 10.1289 14 10.3106 14 10.5V11.2143C14 12.9192 13.3363 14.5544 12.1548 15.76C10.9733 16.9656 9.37086 17.6429 7.7 17.6429V19.0714H9.1C9.28565 19.0714 9.4637 19.1467 9.59498 19.2806C9.72625 19.4146 9.8 19.5963 9.8 19.7857C9.8 19.9752 9.72625 20.1568 9.59498 20.2908C9.4637 20.4247 9.28565 20.5 9.1 20.5H4.9C4.71435 20.5 4.5363 20.4247 4.40503 20.2908C4.27375 20.1568 4.2 19.9752 4.2 19.7857C4.2 19.5963 4.27375 19.4146 4.40503 19.2806C4.5363 19.1467 4.71435 19.0714 4.9 19.0714H6.3Z" fill="#B3B3B3"/>
<path d="M7 1.92857V0.428571V1.92857ZM4.2 4.78571H2.7H4.2ZM4.2 10.5H2.7H4.2ZM7 0.5V-1V0.5ZM6.3 19.0714V20.5714H7.8V19.0714H6.3ZM6.3 17.6429H7.8V16.1429H6.3V17.6429ZM0 11.2143H-1.5H0ZM1.4 10.5H-0.1H1.4ZM1.4 11.2143H-0.1H1.4ZM14 11.2143H15.5H14ZM7.7 17.6429V16.1429H6.2V17.6429H7.7ZM7.7 19.0714H6.2V20.5714H7.7V19.0714ZM7 0.428571C5.84968 0.428571 4.75275 0.895144 3.94878 1.71552L6.09142 3.8153C6.33766 3.56404 6.66511 3.42857 7 3.42857V0.428571ZM3.94878 1.71552C3.14582 2.53486 2.7 3.6398 2.7 4.78571H5.7C5.7 4.41611 5.84417 4.06759 6.09142 3.8153L3.94878 1.71552ZM2.7 4.78571V10.5H5.7V4.78571H2.7ZM2.7 10.5C2.7 11.6459 3.14582 12.7509 3.94878 13.5702L6.09142 11.4704C5.84417 11.2181 5.7 10.8696 5.7 10.5H2.7ZM3.94878 13.5702C4.75275 14.3906 5.84968 14.8571 7 14.8571V11.8571C6.66511 11.8571 6.33766 11.7217 6.09142 11.4704L3.94878 13.5702ZM7 14.8571C8.15032 14.8571 9.24725 14.3906 10.0512 13.5702L7.90858 11.4704C7.66234 11.7217 7.33489 11.8571 7 11.8571V14.8571ZM10.0512 13.5702C10.8542 12.7509 11.3 11.6459 11.3 10.5H8.3C8.3 10.8696 8.15583 11.2181 7.90858 11.4704L10.0512 13.5702ZM11.3 10.5V4.78571H8.3V10.5H11.3ZM11.3 4.78571C11.3 3.6398 10.8542 2.53486 10.0512 1.71552L7.90858 3.8153C8.15583 4.0676 8.3 4.41611 8.3 4.78571H11.3ZM10.0512 1.71552C9.24725 0.895145 8.15032 0.428571 7 0.428571V3.42857C7.33489 3.42857 7.66234 3.56404 7.90858 3.8153L10.0512 1.71552ZM7 2C7.70619 2 8.38974 2.28598 8.89853 2.80515L11.0412 0.705364C9.97465 -0.382917 8.52162 -1 7 -1V2ZM8.89853 2.80515C9.40833 3.32535 9.7 4.03723 9.7 4.78571H12.7C12.7 3.26092 12.1067 1.79262 11.0412 0.705364L8.89853 2.80515ZM9.7 4.78571V10.5H12.7V4.78571H9.7ZM9.7 10.5C9.7 11.2485 9.40833 11.9604 8.89853 12.4806L11.0412 14.5804C12.1067 13.4931 12.7 12.0248 12.7 10.5H9.7ZM8.89853 12.4806C8.38974 12.9997 7.70619 13.2857 7 13.2857V16.2857C8.52162 16.2857 9.97465 15.6686 11.0412 14.5804L8.89853 12.4806ZM7 13.2857C6.29381 13.2857 5.61026 12.9997 5.10147 12.4806L2.95883 14.5804C4.02535 15.6686 5.47838 16.2857 7 16.2857V13.2857ZM5.10147 12.4806C4.59167 11.9604 4.3 11.2485 4.3 10.5H1.3C1.3 12.0248 1.89332 13.4931 2.95883 14.5804L5.10147 12.4806ZM4.3 10.5V4.78571H1.3V10.5H4.3ZM4.3 4.78571C4.3 4.03723 4.59167 3.32535 5.10147 2.80515L2.95883 0.705364C1.89332 1.79262 1.3 3.26092 1.3 4.78571H4.3ZM5.10147 2.80515C5.61026 2.28598 6.29381 2 7 2V-1C5.47838 -1 4.02535 -0.382917 2.95883 0.705364L5.10147 2.80515ZM7.8 19.0714V17.6429H4.8V19.0714H7.8ZM6.3 16.1429C5.03685 16.1429 3.81916 15.6311 2.91655 14.7101L0.773908 16.8099C2.23425 18.3 4.22142 19.1429 6.3 19.1429V16.1429ZM2.91655 14.7101C2.01292 13.788 1.5 12.5311 1.5 11.2143H-1.5C-1.5 13.3074 -0.685426 15.3207 0.773908 16.8099L2.91655 14.7101ZM1.5 11.2143V10.5H-1.5V11.2143H1.5ZM1.5 10.5C1.5 10.6987 1.42292 10.8952 1.27634 11.0448L-0.866294 8.94503C-1.27542 9.36251 -1.5 9.9224 -1.5 10.5H1.5ZM1.27634 11.0448C1.12876 11.1954 0.922069 11.2857 0.7 11.2857V8.28571C0.106627 8.28571 -0.45616 8.52653 -0.866294 8.94503L1.27634 11.0448ZM0.7 11.2857C0.47793 11.2857 0.271238 11.1954 0.123655 11.0448L2.26629 8.94503C1.85616 8.52653 1.29337 8.28571 0.7 8.28571V11.2857ZM0.123655 11.0448C-0.0229223 10.8952 -0.1 10.6987 -0.1 10.5H2.9C2.9 9.9224 2.67542 9.36251 2.26629 8.94503L0.123655 11.0448ZM-0.1 10.5V11.2143H2.9V10.5H-0.1ZM-0.1 11.2143C-0.1 12.9285 0.567075 14.5785 1.76386 15.7997L3.9065 13.6999C3.26542 13.0458 2.9 12.1522 2.9 11.2143H-0.1ZM1.76386 15.7997C2.96165 17.0219 4.59272 17.7143 6.3 17.7143V14.7143C5.40815 14.7143 4.54656 14.3531 3.9065 13.6999L1.76386 15.7997ZM6.3 17.7143H7.7V14.7143H6.3V17.7143ZM7.7 17.7143C9.40728 17.7143 11.0384 17.0219 12.2361 15.7997L10.0935 13.6999C9.45344 14.3531 8.59184 14.7143 7.7 14.7143V17.7143ZM12.2361 15.7997C13.4329 14.5785 14.1 12.9285 14.1 11.2143H11.1C11.1 12.1522 10.7346 13.0458 10.0935 13.6999L12.2361 15.7997ZM14.1 11.2143V10.5H11.1V11.2143H14.1ZM14.1 10.5C14.1 10.6987 14.0229 10.8952 13.8763 11.0448L11.7337 8.94503C11.3246 9.36251 11.1 9.9224 11.1 10.5H14.1ZM13.8763 11.0448C13.7288 11.1954 13.5221 11.2857 13.3 11.2857V8.28571C12.7066 8.28571 12.1438 8.52652 11.7337 8.94503L13.8763 11.0448ZM13.3 11.2857C13.0779 11.2857 12.8712 11.1954 12.7237 11.0448L14.8663 8.94503C14.4562 8.52653 13.8934 8.28571 13.3 8.28571V11.2857ZM12.7237 11.0448C12.5771 10.8952 12.5 10.6987 12.5 10.5H15.5C15.5 9.9224 15.2754 9.36251 14.8663 8.94503L12.7237 11.0448ZM12.5 10.5V11.2143H15.5V10.5H12.5ZM12.5 11.2143C12.5 12.5311 11.9871 13.788 11.0835 14.7101L13.2261 16.8099C14.6854 15.3207 15.5 13.3074 15.5 11.2143H12.5ZM11.0835 14.7101C10.1808 15.6311 8.96315 16.1429 7.7 16.1429V19.1429C9.77858 19.1429 11.7657 18.3 13.2261 16.8099L11.0835 14.7101ZM6.2 17.6429V19.0714H9.2V17.6429H6.2ZM7.7 20.5714H9.1V17.5714H7.7V20.5714ZM9.1 20.5714C8.87794 20.5714 8.67125 20.4811 8.52366 20.3305L10.6663 18.2307C10.2562 17.8122 9.69336 17.5714 9.1 17.5714V20.5714ZM8.52366 20.3305C8.37707 20.181 8.3 19.9844 8.3 19.7857H11.3C11.3 19.2081 11.0754 18.6482 10.6663 18.2307L8.52366 20.3305ZM8.3 19.7857C8.3 19.587 8.37707 19.3905 8.52366 19.2409L10.6663 21.3407C11.0754 20.9232 11.3 20.3633 11.3 19.7857H8.3ZM8.52366 19.2409C8.67125 19.0903 8.87795 19 9.1 19V22C9.69335 22 10.2561 21.7592 10.6663 21.3407L8.52366 19.2409ZM9.1 19H4.9V22H9.1V19ZM4.9 19C5.12205 19 5.32875 19.0903 5.47634 19.2409L3.33371 21.3407C3.74385 21.7592 4.30664 22 4.9 22V19ZM5.47634 19.2409C5.62292 19.3905 5.7 19.587 5.7 19.7857H2.7C2.7 20.3633 2.92458 20.9232 3.33371 21.3407L5.47634 19.2409ZM5.7 19.7857C5.7 19.9844 5.62292 20.181 5.47634 20.3305L3.33371 18.2307C2.92458 18.6482 2.7 19.2081 2.7 19.7857H5.7ZM5.47634 20.3305C5.32876 20.4811 5.12206 20.5714 4.9 20.5714V17.5714C4.30663 17.5714 3.74384 17.8122 3.33371 18.2307L5.47634 20.3305ZM4.9 20.5714H6.3V17.5714H4.9V20.5714Z" fill="#B3B3B3" mask="url(#path-1-inside-1_387_10147)"/>
</g>
</svg>
